<?xml version="1.0"?><svg width="1200" height="500" viewBox="0 0 1200 500" role="img" aria-labelledby="title desc" version="1.1" id="svg29" xmlns="http://www.w3.org/2000/svg" xmlns:c2pa="http://c2pa.org/manifest"><metadata><c2pa:manifest>AAAWgmp1bWIAAAAeanVtZGMycGEAEQAQgAAAqgA4m3EDYzJwYQAAABZcanVtYgAAAEdqdW1kYzJtYQARABCAAACqADibcQN1cm46YzJwYTo4Yjk0ZTdjMC0yYTAxLTQ5YWYtYTEwZS1kNGJlNjIyZTgyNTkAAAADl2p1bWIAAAApanVtZGMyYXMAEQAQgAAAqgA4m3EDYzJwYS5hc3NlcnRpb25zAAAAALxqdW1iAAAARGp1bWRjYm9yABEAEIAAAKoAOJtxE2MycGEuaW5ncmVkaWVudC52MwAAAAAYYzJzaMDi+lDL5440bZqJR+m+dd8AAABwY2JvcqNpZGM6Zm9ybWF0bWltYWdlL3N2Zyt4bWxqaW5zdGFuY2VJRHgseG1wOmlpZDphN2Y3MDQ0ZS1jNTc2LTQxNzQtYjYyYi0wOGRkMDIxYjZlMzJscmVsYXRpb25zaGlwaHBhcmVudE9mAAAB4mp1bWIAAABBanVtZGNib3IAEQAQgAAAqgA4m3ETYzJwYS5hY3Rpb25zLnYyAAAAABhjMnNon/3E43aQeyxU9lyhzxCtTwAAAZljYm9yomdhY3Rpb25zgqJmYWN0aW9ua2MycGEub3BlbmVkanBhcmFtZXRlcnOha2luZ3JlZGllbnRzgaJjdXJseC1zZWxmI2p1bWJmPWMycGEuYXNzZXJ0aW9ucy9jMnBhLmluZ3JlZGllbnQudjNkaGFzaFggeDGNXF168VU1A5Uqmc34JqdFCufhkZBwMx5sWjjCtKKkZmFjdGlvbngdY29tLmFudGhyb3BpYy5jbGF1ZGUucHJvdmlkZWRqcGFyYW1ldGVyc6F4H2NvbS5hbnRocm9waWMub3JpZ2luLWNvbmZpZGVuY2VndW5rbm93bmtkZXNjcmlwdGlvbnhmQ2xhdWRlIHByb3ZpZGVkIHRoaXMgZmlsZSBhdCB0aGUgcmVxdWVzdCBvZiBhIHVzZXIgYW5kIG1heSBoYXZlIGNyZWF0ZWQgb3IgbW9kaWZpZWQgdGhlIGZpbGUgY29udGVudHMubXNvZnR3YXJlQWdlbnShZG5hbWVmQ2xhdWRlcmFsbEFjdGlvbnNJbmNsdWRlZPUAAADIanVtYgAAAEBqdW1kY2JvcgARABCAAACqADibcRNjMnBhLmhhc2guZGF0YQAAAAAYYzJzaKqU1ZJ8PHmfSlq/zLzXp3wAAACAY2JvcqVjYWxnZnNoYTI1NmNwYWRNAAAAAAAAAAAAAAAAAGRoYXNoWCABpGsibRGpj2YxTR41K34Qwptnk08ccHpYAy2vokYSD2RuYW1lbmp1bWJmIG1hbmlmZXN0amV4Y2x1c2lvbnOBomVzdGFydBjuZmxlbmd0aBkeBAAAAj5qdW1iAAAAJ2p1bWRjMmNsABEAEIAAAKoAOJtxA2MycGEuY2xhaW0udjIAAAACD2Nib3KlY2FsZ2ZzaGEyNTZpc2lnbmF0dXJleE1zZWxmI2p1bWJmPS9jMnBhL3VybjpjMnBhOjhiOTRlN2MwLTJhMDEtNDlhZi1hMTBlLWQ0YmU2MjJlODI1OS9jMnBhLnNpZ25hdHVyZWppbnN0YW5jZUlEeCx4bXA6aWlkOmNiZjYzZWMxLWJjYzQtNGVmNC1hMjNiLTA4NmQxN2Y4OGE4MnJjcmVhdGVkX2Fzc2VydGlvbnODomN1cmx4LXNlbGYjanVtYmY9YzJwYS5hc3NlcnRpb25zL2MycGEuaW5ncmVkaWVudC52M2RoYXNoWCB4MY1cXXrxVTUDlSqZzfgmp0UK5+GRkHAzHmxaOMK0oqJjdXJseCpzZWxmI2p1bWJmPWMycGEuYXNzZXJ0aW9ucy9jMnBhLmFjdGlvbnMudjJkaGFzaFgglfYMJe7nX/giS3G/RYGAjlr+mJZa4j/sIJDX6q+FgzyiY3VybHgpc2VsZiNqdW1iZj1jMnBhLmFzc2VydGlvbnMvYzJwYS5oYXNoLmRhdGFkaGFzaFggXOfLYqTPImBApP6x5R7DeOR07Bxz1/sZtoswJtjJ85l0Y2xhaW1fZ2VuZXJhdG9yX2luZm+jZG5hbWVvQW50aHJvcGljIEZpbGVzZ3ZlcnNpb25lMS4wLjBrc3BlY1ZlcnNpb25lMi40LjAAABA4anVtYgAAAChqdW1kYzJjcwARABCAAACqADibcQNjMnBhLnNpZ25hdHVyZQAAABAIY2JvctKEWQISogEmGCFZAgowggIGMIIBjaADAgECAhRA5aAK7sI50L64g/oGQgU9Z1UTADAKBggqhkjOPQQDAzBJMRcwFQYDVQQKEw5BbnRocm9waWMsIFBCQzEuMCwGA1UEAxMlQW50aHJvcGljIENvbnRlbnQgQ3JlZGVudGlhbHMgUm9vdCBDQTAeFw0yNjA4MDcxODQzNTZaFw0yODA4MDYxOTQzNTZaMEQxFzAVBgNVBAoTDkFudGhyb3BpYywgUEJDMSkwJwYDVQQDEyBBbnRocm9waWMgQ2xhdWRlIENvbnRlbnQgU2lnbmluZzBZMBMGByqGSM49AgEGCCqGSM49AwEHA0IABJh6CmvLUBgFFNU0vUKlOVtE6djd17L5SuwX0LemFisBM3dkd/3cyjxFA3Qo5S46fX0/ihY0VZ7mfb9KF703t5OjWDBWMA4GA1UdDwEB/wQEAwIHgDAVBgNVHSUEDjAMBgorBgEEAYPoXgIBMAwGA1UdEwEB/wQCMAAwHwYDVR0jBBgwFoAUzlHiBIFOZFsj+OPEz5o+nMHXXMIwCgYIKoZIzj0EAwMDZwAwZAIwMXMdFJ4BetLLVY7ORuE9noqbbAZOZn/aArXyTwFAZfKrPzxF2vPoJNf1+UCdg1XGAjBwX1zd9WGqYkqmL5SFqw1QySjr1zJfpJM9+1rdDwSPLMOPOjKuiXjoU/pUUeG9RwmhY3BhZFkNngAAAAAAAAAAAAAAAAAAAAAAAAAAAAAAAAAAAAAAAAAAAAAAAAAAAAAAAAAAAAAAAAAAAAAAAAAAAAAAAAAAAAAAAAAAAAAAAAAAAAAAAAAAAAAAAAAAAAAAAAAAAAAAAAAAAAAAAAAAAAAAAAAAAAAAAAAAAAAAAAAAAAAAAAAAAAAAAAAAAAAAAAAAAAAAAAAAAAAAAAAAAAAAAAAAAAAAAAAAAAAAAAAAAAAAAAAAAAAAAAAAAAAAAAAAAAAAAAAAAAAAAAAAAAAAAAAAAAAAAAAAAAAAAAAAAAAAAAAAAAAAAAAAAAAAAAAAAAAAAAAAAAAAAAAAAAAAAAAAAAAAAAAAAAAAAAAAAAAAAAAAAAAAAAAAAAAAAAAAAAAAAAAAAAAAAAAAAAAAAAAAAAAAAAAAAAAAAAAAAAAAAAAAAAAAAAAAAAAAAAAAAAAAAAAAAAAAAAAAAAAAAAAAAAAAAAAAAAAAAAAAAAAAAAAAAAAAAAAAAAAAAAAAAAAAAAAAAAAAAAAAAAAAAAAAAAAAAAAAAAAAAAAAAAAAAAAAAAAAAAAAAAAAAAAAAAAAAAAAAAAAAAAAAAAAAAAAAAAAAAAAAAAAAAAAAAAAAAAAAAAAAAAAAAAAAAAAAAAAAAAAAAAAAAAAAAAAAAAAAAAAAAAAAAAAAAAAAAAAAAAAAAAAAAAAAAAAAAAAAAAAAAAAAAAAAAAAAAAAAAAAAAAAAAAAAAAAAAAAAAAAAAAAAAAAAAAAAAAAAAAAAAAAAAAAAAAAAAAAAAAAAAAAAAAAAAAAAAAAAAAAAAAAAAAAAAAAAAAAAAAAAAAAAAAAAAAAAAAAAAAAAAAAAAAAAAAAAAAAAAAAAAAAAAAAAAAAAAAAAAAAAAAAAAAAAAAAAAAAAAAAAAAAAAAAAAAAAAAAAAAAAAAAAAAAAAAAAAAAAAAAAAAAAAAAAAAAAAAAAAAAAAAAAAAAAAAAAAAAAAAAAAAAAAAAAAAAAAAAAAAAAAAAAAAAAAAAAAAAAAAAAAAAAAAAAAAAAAAAAAAAAAAAAAAAAAAAAAAAAAAAAAAAAAAAAAAAAAAAAAAAAAAAAAAAAAAAAAAAAAAAAAAAAAAAAAAAAAAAAAAAAAAAAAAAAAAAAAAAAAAAAAAAAAAAAAAAAAAAAAAAAAAAAAAAAAAAAAAAAAAAAAAAAAAAAAAAAAAAAAAAAAAAAAAAAAAAAAAAAAAAAAAAAAAAAAAAAAAAAAAAAAAAAAAAAAAAAAAAAAAAAAAAAAAAAAAAAAAAAAAAAAAAAAAAAAAAAAAAAAAAAAAAAAAAAAAAAAAAAAAAAAAAAAAAAAAAAAAAAAAAAAAAAAAAAAAAAAAAAAAAAAAAAAAAAAAAAAAAAAAAAAAAAAAAAAAAAAAAAAAAAAAAAAAAAAAAAAAAAAAAAAAAAAAAAAAAAAAAAAAAAAAAAAAAAAAAAAAAAAAAAAAAAAAAAAAAAAAAAAAAAAAAAAAAAAAAAAAAAAAAAAAAAAAAAAAAAAAAAAAAAAAAAAAAAAAAAAAAAAAAAAAAAAAAAAAAAAAAAAAAAAAAAAAAAAAAAAAAAAAAAAAAAAAAAAAAAAAAAAAAAAAAAAAAAAAAAAAAAAAAAAAAAAAAAAAAAAAAAAAAAAAAAAAAAAAAAAAAAAAAAAAAAAAAAAAAAAAAAAAAAAAAAAAAAAAAAAAAAAAAAAAAAAAAAAAAAAAAAAAAAAAAAAAAAAAAAAAAAAAAAAAAAAAAAAAAAAAAAAAAAAAAAAAAAAAAAAAAAAAAAAAAAAAAAAAAAAAAAAAAAAAAAAAAAAAAAAAAAAAAAAAAAAAAAAAAAAAAAAAAAAAAAAAAAAAAAAAAAAAAAAAAAAAAAAAAAAAAAAAAAAAAAAAAAAAAAAAAAAAAAAAAAAAAAAAAAAAAAAAAAAAAAAAAAAAAAAAAAAAAAAAAAAAAAAAAAAAAAAAAAAAAAAAAAAAAAAAAAAAAAAAAAAAAAAAAAAAAAAAAAAAAAAAAAAAAAAAAAAAAAAAAAAAAAAAAAAAAAAAAAAAAAAAAAAAAAAAAAAAAAAAAAAAAAAAAAAAAAAAAAAAAAAAAAAAAAAAAAAAAAAAAAAAAAAAAAAAAAAAAAAAAAAAAAAAAAAAAAAAAAAAAAAAAAAAAAAAAAAAAAAAAAAAAAAAAAAAAAAAAAAAAAAAAAAAAAAAAAAAAAAAAAAAAAAAAAAAAAAAAAAAAAAAAAAAAAAAAAAAAAAAAAAAAAAAAAAAAAAAAAAAAAAAAAAAAAAAAAAAAAAAAAAAAAAAAAAAAAAAAAAAAAAAAAAAAAAAAAAAAAAAAAAAAAAAAAAAAAAAAAAAAAAAAAAAAAAAAAAAAAAAAAAAAAAAAAAAAAAAAAAAAAAAAAAAAAAAAAAAAAAAAAAAAAAAAAAAAAAAAAAAAAAAAAAAAAAAAAAAAAAAAAAAAAAAAAAAAAAAAAAAAAAAAAAAAAAAAAAAAAAAAAAAAAAAAAAAAAAAAAAAAAAAAAAAAAAAAAAAAAAAAAAAAAAAAAAAAAAAAAAAAAAAAAAAAAAAAAAAAAAAAAAAAAAAAAAAAAAAAAAAAAAAAAAAAAAAAAAAAAAAAAAAAAAAAAAAAAAAAAAAAAAAAAAAAAAAAAAAAAAAAAAAAAAAAAAAAAAAAAAAAAAAAAAAAAAAAAAAAAAAAAAAAAAAAAAAAAAAAAAAAAAAAAAAAAAAAAAAAAAAAAAAAAAAAAAAAAAAAAAAAAAAAAAAAAAAAAAAAAAAAAAAAAAAAAAAAAAAAAAAAAAAAAAAAAAAAAAAAAAAAAAAAAAAAAAAAAAAAAAAAAAAAAAAAAAAAAAAAAAAAAAAAAAAAAAAAAAAAAAAAAAAAAAAAAAAAAAAAAAAAAAAAAAAAAAAAAAAAAAAAAAAAAAAAAAAAAAAAAAAAAAAAAAAAAAAAAAAAAAAAAAAAAAAAAAAAAAAAAAAAAAAAAAAAAAAAAAAAAAAAAAAAAAAAAAAAAAAAAAAAAAAAAAAAAAAAAAAAAAAAAAAAAAAAAAAAAAAAAAAAAAAAAAAAAAAAAAAAAAAAAAAAAAAAAAAAAAAAAAAAAAAAAAAAAAAAAAAAAAAAAAAAAAAAAAAAAAAAAAAAAAAAAAAAAAAAAAAAAAAAAAAAAAAAAAAAAAAAAAAAAAAAAAAAAAAAAAAAAAAAAAAAAAAAAAAAAAAAAAAAAAAAAAAAAAAAAAAAAAAAAAAAAAAAAAAAAAAAAAAAAAAAAAAAAAAAAAAAAAAAAAAAAAAAAAAAAAAAAAAAAAAAAAAAAAAAAAAAAAAAAAAAAAAAAAAAAAAAAAAAAAAAAAAAAAAAAAAAAAAAAAAAAAAAAAAAAAAAAAAAAAAAAAAAAAAAAAAAAAAAAAAAAAAAAAAAAAAAAAAAAAAAAAAAAAAAAAAAAAAAAAAAAAAAAAAAAAAAAAAAAAAAAAAAAAAAAAAAAAAAAAAAAAAAAAAAAAAAAAAAAAAAAAAAAAAAAAAAAAAAAAAAAAAAAAAAAAAAAAAAAAAAAAAAAAAAAAAAAAAAAAAAAAAAAAAAAAAAAAAAAAAAAAAAAAAAAAAAAAAAAAAAAAAAAAAAAAAAAAAAAAAAAAAAAAAAAAAAAAAAAAAAAAAAAAAAAAAAAAAAAAAAAAAAAAAAAAAAAAAAAAAAAAAAAAAAAAAAAAAAAAAAAAAAAAAAAAAAAAAAAAAAAAAAAAAAAAAAAAAAAAAAAAAAAAAAAAAAAAAAAAAAAAAAAAAAAAAAAAAAAAAAAAAAAAAAAAAAAAAAAAAAAAAAAAAAAAAAAAAAAAAAAAAAAAAAAAAAAAAAAAAAAAAAAAAAAAAAAAAAAAAAAAAAAAAAAAAAAAAAAAAAAAAAAAAAAAAAAAAAAAAAAAAAAAAAAAAAAAAAAAAAAAAAAAAAAAAAAAAAAAAAAAAAAAAAAAAAAAAAAAAAAAAAAAAAAAAAAAAAAAAAAAAAAAAAAAAAAAAAAAAAAAAAAAAAAAAAAAAAAAAAAAAAAAAAAAAAAAAAAAAAAAAAAAAAAAAAAAAAAAAAAAAAAAAAAAAAAAAAAAAAAAAAAAAAAAAAAAAAAAAAAAAAAAAAAAAAAAAAAAAAAAAAAAAAAAAAAAAAAAAAAAAAAAAAAAAAAAAAAAAAAAAAAAAAAAAAAAAAAAAAAAAAAAAAAAAAAAAAAAAAAAAAAAAAAAAAAAAAAAAAAAAAAAAAAAAAAAAAAAAAAAAAAAAAAAAAAAAAAAAAAAAAAAAAAAAAAAAAAAAAAAAAAAAAAAAAAAAAAAAAAAAAAAAAAAAAAAAAAAAAAAAAAAAAAAAAAAAAAAAAAAAAAAAAAAAAAAAAAAAAAAAAAAAAAAAAAAAAAAAAAAAAAAAAAAAAAAAAAAAAAAAAAAAAAAAAAAAAAAAAAAAAAAAAAAAAAAAAAAAAAAAAAAAAAAAAAAAAAAAAAAAAAAAAAAAAAAAAAAAAAAAAAAAAAAAAAAAAAAAAAAAAAAAAAAAAAAAAAAAAAAAAAAAAAAAAAAAAAAAAAAAAAAAAAAAAAAAAAAAAAAAAAAAAAAAAAAAAAAAAAAAAAAAAAAAAAAAAAAAAAAAAAAAAAAAAAAAAAAAAAAAAAAAAAAAAAAAAAAAAAAAAAAAAAAAAAAAAAPZYQLFSIMkdFEzuR/fK3MApqhfBQHTFXrn1i3GS5iemfBgL4OwWlne1CbREyx+RsBIgwaULHsXG5gelRpVtHi05nhw=</c2pa:manifest></metadata>
  <title id="title">With Bader logo</title>
  <desc id="desc">Transparent vector logo with a turquoise-to-blue interview mark and navy wordmark.</desc>
  <defs id="defs11">
    <linearGradient id="brandGradient" x1="60" y1="70" x2="430" y2="420" gradientUnits="userSpaceOnUse">
      <stop offset="0" stop-color="#25D7B9" id="stop4"></stop>
      <stop offset="0.52" stop-color="#20BCCE" id="stop6"></stop>
      <stop offset="1" stop-color="#2585F2" id="stop8"></stop>
    </linearGradient>
  </defs>
  
  <path d="M118 75H316C377 75 421 119 421 177c0 57-44 101-105 101H171l-91 67 11-98c-32-19-51-54-51-94C40 109 73 75 118 75Z" fill="none" stroke="url(#brandGradient)" stroke-width="39" stroke-linejoin="round" stroke-linecap="round" id="path13"></path>
  <path d="M300 278h121v-64Z" fill="url(#brandGradient)" id="path15"></path>
  <rect x="118" y="302" width="304" height="46" rx="2" fill="url(#brandGradient)" id="rect17"></rect>
  <rect x="118" y="370" width="304" height="46" rx="2" fill="url(#brandGradient)" id="rect19"></rect>
  <rect x="118" y="438" width="236" height="35" rx="2" fill="url(#brandGradient)" id="rect21"></rect>
  
  <g fill="#113b69" font-family="'Nimbus Sans', 'Helvetica Neue', Arial, sans-serif" id="g27">
    <g aria-label="With" id="text23" style="font-weight:300;font-size:168px;letter-spacing:-7">
      <path d="m 624.992,238 31.08,-122.472 H 638.6 L 616.088,214.984 588.2,115.528 h -16.8 l -27.216,99.456 -23.016,-99.456 H 503.696 L 535.112,238 h 17.136 L 579.632,137.368 607.856,238 Z" id="path33"></path>
      <path d="m 676.45591,149.968 h -13.944 V 238 h 13.944 z m 0,-34.44 h -14.112 v 17.64 h 14.112 z" id="path35"></path>
      <path d="m 724.22393,149.968 h -14.448 v -24.192 h -13.944 v 24.192 h -11.928 v 11.424 h 11.928 v 66.528 c 0,9.072 6.048,13.944 16.968,13.944 3.696,0 6.72,-0.336 11.424,-1.176 v -11.76 c -2.016,0.504 -3.864,0.672 -6.72,0.672 -6.048,0 -7.728,-1.68 -7.728,-7.896 v -60.312 h 14.448 z" id="path37"></path>
      <path d="M 732.00782,115.528 V 238 h 13.944 v -48.552 c 0,-17.976 9.408,-29.736 23.856,-29.736 4.704,0 9.072,1.344 12.432,3.864 4.032,3.024 5.712,7.224 5.712,13.44 V 238 h 13.944 v -66.528 c 0,-14.784 -10.584,-24.024 -27.72,-24.024 -12.432,0 -19.992,3.864 -28.224,14.616 v -46.536 z" id="path39"></path>
    </g>
    <g aria-label="Bader" id="text25" style="font-weight:700;font-size:174px;letter-spacing:-7">
      <path d="m 514.268,418 h 57.072 c 14.616,0 24.36,-2.784 32.016,-9.222 7.656,-6.438 12.528,-17.052 12.528,-27.318 0,-12.528 -6.612,-22.446 -21.054,-30.798 12.528,-8.004 17.4,-15.312 17.4,-26.1 0,-8.874 -4.35,-17.922 -11.484,-24.186 -7.482,-6.438 -16.356,-9.222 -29.928,-9.222 h -56.55 z m 26.1,-105.096 h 28.362 c 12.18,0 18.444,4.872 18.444,14.268 0,9.57 -6.264,14.442 -18.444,14.442 h -28.362 z m 0,50.46 h 31.146 c 12.702,0 19.314,5.568 19.314,16.53 0,10.788 -6.612,16.356 -19.314,16.356 h -31.146 z" id="path42"></path>
      <path d="m 709.80402,415.042 c -4.176,-4.002 -5.568,-6.786 -5.568,-11.484 v -52.2 c 0,-19.14 -13.05,-28.884 -38.454,-28.884 -25.404,0 -38.628,10.788 -40.194,32.538 h 23.49 c 1.218,-9.744 5.22,-12.876 17.226,-12.876 9.396,0 14.094,3.132 14.094,9.396 0,3.132 -1.566,5.742 -4.176,7.308 -3.306,1.74 -3.306,1.74 -15.312,3.654 l -9.744,1.74 c -18.618,3.132 -27.666,12.702 -27.666,29.58 0,16.878 11.31,28.188 28.536,28.188 10.44,0 19.836,-4.35 28.536,-13.398 0,4.872 0.522,6.612 2.784,9.396 h 26.448 z m -29.406,-34.8 c 0,14.094 -6.96,22.098 -19.314,22.098 -8.178,0 -13.224,-4.35 -13.224,-11.31 0,-7.308 3.828,-10.788 13.92,-12.876 l 8.352,-1.566 c 6.438,-1.218 7.482,-1.566 10.266,-2.958 z" id="path44"></path>
      <path d="m 778.84198,418 h 24.36 V 291.154 h -24.36 v 45.066 c -6.09,-9.396 -14.094,-13.746 -25.926,-13.746 -22.446,0 -39.498,21.576 -39.498,49.938 0,12.702 3.828,25.578 10.092,34.626 6.438,9.222 17.922,14.964 29.406,14.964 11.832,0 19.836,-4.176 25.926,-13.572 z m -20.532,-75.168 c 12.354,0 20.532,11.832 20.532,29.928 0,17.052 -8.352,28.884 -20.532,28.884 -12.18,0 -20.532,-12.006 -20.532,-29.232 0,-17.574 8.352,-29.58 20.532,-29.58 z" id="path46"></path>
      <path d="m 898.86197,378.676 c 0.174,-2.088 0.174,-2.958 0.174,-4.176 0,-9.396 -1.392,-18.096 -3.654,-24.708 -6.264,-17.052 -21.402,-27.318 -40.368,-27.318 -26.97,0 -43.5,19.488 -43.5,50.982 0,30.102 16.356,48.546 42.978,48.546 21.054,0 38.106,-11.832 43.5,-30.45 h -24.012 c -2.958,7.482 -9.744,11.832 -18.618,11.832 -6.96,0 -12.528,-2.958 -16.008,-8.178 -2.262,-3.48 -3.132,-7.656 -3.48,-16.53 z m -62.64,-16.182 c 1.566,-14.442 7.656,-21.402 18.444,-21.402 11.136,0 17.748,7.482 18.966,21.402 z" id="path48"></path>
      <path d="M 908.39193,324.04 V 418 h 24.36 v -49.938 c 0,-14.268 7.134,-21.402 21.402,-21.402 2.61,0 4.35,0.174 7.656,0.696 v -24.708 c -1.392,-0.174 -1.914,-0.174 -2.958,-0.174 -11.136,0 -20.706,7.308 -26.1,20.01 V 324.04 Z" id="path50"></path>
    </g>
  </g>
</svg>